<svg version="1.1" viewBox="0.0 0.0 64.0 64.0" fill="none" stroke="none" stroke-linecap="square" stroke-miterlimit="10" xmlns:xlink="http://www.w3.org/1999/xlink" xmlns="http://www.w3.org/2000/svg"><clipPath id="p.0"><path d="m0 0l64.0 0l0 64.0l-64.0 0l0 -64.0z" clip-rule="nonzero"/></clipPath><g clip-path="url(#p.0)"><defs><linearGradient id="p.1" gradientUnits="userSpaceOnUse" gradientTransform="matrix(8.000014479973276 0.0 0.0 8.000014479973276 0.0 0.0)" spreadMethod="pad" x1="1.0483443242313437E-10" y1="-2.895986792415366E-5" x2="-2.895986792415366E-5" y2="7.999985520052934"><stop offset="0.0" stop-color="#4e29aa"/><stop offset="1.0" stop-color="#1e123d"/></linearGradient></defs><path fill="url(#p.1)" d="m0 0l64.0 0l0 64.0l-64.0 0z" fill-rule="evenodd"/><path fill="#000000" fill-opacity="0.0" d="m7.5065618 -7.959564l30.740158 0l0 49.51181l-30.740158 0z" fill-rule="evenodd"/><path fill="#d9d9d9" d="m33.490936 3.4848099l-0.5625 18.421875l0.46875 10.15625l-5.03125 1.0625l-12.71875 -20.5625l0 9.34375l0.609375 11.09375l-5.34375 0l0.515625 -10.359375l-0.515625 -18.953125l5.125 -0.25l12.671875 20.859375l-0.421875 -20.171875l5.203125 -0.640625z" fill-rule="nonzero"/><path fill="#000000" fill-opacity="0.0" d="m24.55643 17.258907l31.370079 0l0 49.511814l-31.370079 0z" fill-rule="evenodd"/><path fill="#d9d9d9" d="m50.540806 28.703281l-0.5625 18.421875l0.46875 10.15625l-5.03125 1.0625l-12.71875 -20.5625l0 9.34375l0.609375 11.09375l-5.34375 0l0.515625 -10.359375l-0.515625 -18.953125l5.125 -0.25l12.671875 20.859375l-0.421875 -20.171875l5.203125 -0.640625z" fill-rule="nonzero"/></g></svg>