<svg version="1.1" viewBox="0.0 0.0 256.0 256.0" fill="none" stroke="none" stroke-linecap="square" stroke-miterlimit="10" xmlns:xlink="http://www.w3.org/1999/xlink" xmlns="http://www.w3.org/2000/svg"><clipPath id="p.0"><path d="m0 0l256.0 0l0 256.0l-256.0 0l0 -256.0z" clip-rule="nonzero"/></clipPath><g clip-path="url(#p.0)"><defs><linearGradient id="p.1" gradientUnits="userSpaceOnUse" gradientTransform="matrix(16.00002895994655 0.0 0.0 16.00002895994655 0.0 0.0)" spreadMethod="pad" x1="2.0966886484626874E-10" y1="-5.791973584830732E-5" x2="-5.791973584830732E-5" y2="15.999971040105867"><stop offset="0.0" stop-color="#4e29aa"/><stop offset="1.0" stop-color="#1e123d"/></linearGradient></defs><path fill="url(#p.1)" d="m0 0l256.0 0l0 256.0l-256.0 0z" fill-rule="evenodd"/><path fill="#000000" fill-opacity="0.0" d="m30.026247 -31.838257l122.96063 0l0 198.04724l-122.96063 0z" fill-rule="evenodd"/><path fill="#d9d9d9" d="m135.94812 15.9079895l-2.203125 73.71875l1.875 40.625l-20.140625 4.265625l-50.859375 -82.265625l0 37.375l2.390625 44.375l-21.328125 0l2.046875 -41.46875l-2.046875 -75.765625l20.46875 -1.03125l50.6875 83.453125l-1.703125 -80.71875l20.8125 -2.5625z" fill-rule="nonzero"/><path fill="#000000" fill-opacity="0.0" d="m98.22572 69.03563l125.480316 0l0 198.04726l-125.480316 0z" fill-rule="evenodd"/><path fill="#d9d9d9" d="m204.1476 116.781876l-2.203125 73.71875l1.875 40.625l-20.140625 4.265625l-50.859375 -82.265625l0 37.375l2.390625 44.375l-21.328125 0l2.046875 -41.46875l-2.046875 -75.765625l20.46875 -1.03125l50.6875 83.453125l-1.703125 -80.71875l20.8125 -2.5625z" fill-rule="nonzero"/></g></svg>